<svg xmlns="http://www.w3.org/2000/svg" viewBox="0 0 150 60">
  <path d="M30 19.96v20.08h6.74V19.96H30zm14.08 0v20.08h6.74V29.56h8.21c3.4 0 5.66-2.2 5.66-4.8 0-2.6-2.26-4.8-5.66-4.8h-14.95zm6.74 5.15h6.86c.99 0 1.66.5 1.66 1.3 0 .8-.67 1.3-1.66 1.3h-6.86v-2.6zm29.68-5.66c-6.58 0-11.93 4.82-11.93 10.68 0 5.86 5.35 10.68 11.93 10.68 6.57 0 11.93-4.82 11.93-10.68 0-5.86-5.36-10.68-11.93-10.68zm0 6.34c2.39 0 4.78 1.92 4.78 4.34 0 2.42-2.4 4.34-4.78 4.34s-4.78-1.92-4.78-4.34c0-2.42 2.4-4.34 4.78-4.34zm22.11-5.83l-9.62 19.58h6.28l1.35-2.95h9.4l1.33 2.95h6.32l-9.56-19.58h-5.5zm3.15 6.72l2.73 5.76h-5.64l2.91-5.76z" fill="#2970FF"/>
</svg>
