<svg width="150" height="60" viewBox="0 0 150 60" fill="none" xmlns="http://www.w3.org/2000/svg">
  <path d="M30 15C30 15 20 15 20 25C20 35 30 35 30 35C30 35 40 35 40 25C40 15 30 15 30 15Z" fill="#4A5568"/>
  <path d="M30 40C30 40 25 40 25 45C25 50 30 50 30 50C30 50 35 50 35 45C35 40 30 40 30 40Z" fill="#4A5568"/>
  <path d="M55 25L80 25M55 35L75 35M55 45L70 45" stroke="#4A5568" stroke-width="5"/>
  <path d="M100 15C100 15 90 15 90 25C90 35 100 35 100 35C100 35 110 35 110 25C110 15 100 15 100 15Z" fill="#4A5568"/>
  <path d="M100 40C100 40 95 40 95 45C95 50 100 50 100 50C100 50 105 50 105 45C105 40 100 40 100 40Z" fill="#4A5568"/>
  <path d="M30 35V40M30 50V55M100 35V40M100 50V55" stroke="#4A5568" stroke-width="2"/>
  <path d="M10 30H20M40 30H50M80 30H90M110 30H120" stroke="#4A5568" stroke-width="2"/>
</svg>
