<svg xmlns="http://www.w3.org/2000/svg" viewBox="0 0 150 60">
  <path d="M38.62 30c0-6.42 5.35-11.62 11.96-11.62 6.6 0 11.95 5.2 11.95 11.62 0 6.42-5.35 11.62-11.95 11.62-6.61 0-11.96-5.2-11.96-11.62z" fill="#00C3DC"/>
  <path d="M74.39 30c0-6.42 5.36-11.62 11.96-11.62 6.6 0 11.95 5.2 11.95 11.62 0 6.42-5.35 11.62-11.95 11.62-6.6 0-11.96-5.2-11.96-11.62z" fill="#595CE6"/>
  <path d="M56.51 45.97c0-6.42 5.35-11.62 11.95-11.62 6.6 0 11.96 5.2 11.96 11.62 0 6.42-5.36 11.62-11.96 11.62-6.6 0-11.95-5.2-11.95-11.62z" fill="#6A3BE4"/>
  <path d="M56.51 14.03c0-6.42 5.35-11.62 11.95-11.62 6.6 0 11.96 5.2 11.96 11.62 0 6.42-5.36 11.62-11.96 11.62-6.6 0-11.95-5.2-11.95-11.62z" fill="#22D5AD"/>
  <path d="M38.63 45.97c0-6.42 5.35-11.62 11.95-11.62 6.6 0 11.95 5.2 11.95 11.62 0 6.42-5.35 11.62-11.95 11.62s-11.95-5.2-11.95-11.62z" fill="#FF9900"/>
  <path d="M38.63 14.03c0-6.42 5.35-11.62 11.95-11.62 6.6 0 11.95 5.2 11.95 11.62 0 6.42-5.35 11.62-11.95 11.62s-11.95-5.2-11.95-11.62z" fill="#0CB6EB"/>
  <path d="M110.4 20.33h3.8v19.5h-3.8v-19.5zm-10.03 0h3.8v19.5h-3.8v-19.5z" fill="#4A5568"/>
</svg>
