<svg xmlns="http://www.w3.org/2000/svg" viewBox="0 0 150 60">
  <path d="M30.48 32.1l4.84-8.41 4.89 8.41H30.48zm13.49 4.89l-2.17-3.79h9.65L42.22 18.7c-.86-1.48-2.45-2.4-4.17-2.4-1.71 0-3.3.91-4.16 2.4l-9.24 14.5h9.66l-2.18 3.79h-9.43l-2.66 4.19h39.02l-2.66-4.19h-12.43z" fill="#fa4d56"/>
  <path d="M77.77 21.11v19.77h-5.06V21.11h-7.72v-4.81h20.56v4.81H77.77z" fill="#4A5568"/>
  <path d="M105.65 31.32c0 6.43-4.5 10.05-10.04 10.05-5.75 0-9.75-4.27-9.75-9.75 0-5.58 4.11-9.91 10.05-9.91 5.95 0 9.74 4.41 9.74 9.61zm-14.69.21c0 2.87 1.64 5.3 4.78 5.3 3.03 0 4.81-2.38 4.81-5.4 0-2.59-1.47-5.27-4.81-5.27-3.33 0-4.78 2.56-4.78 5.37z" fill="#4A5568"/>
  <path d="M118.64 18.91c4.82 0 8.83 2.73 8.83 7.93 0 5.06-4.08 8.06-8.83 8.06h-2.66v5.98h-5.06V18.91h7.72zm-2.66 11.44h2.14c2.35 0 4.2-1.12 4.2-3.48 0-2.42-1.85-3.44-4.23-3.44h-2.11v6.92z" fill="#4A5568"/>
</svg>
