<svg xmlns="http://www.w3.org/2000/svg" viewBox="0 0 150 60">
  <path d="M31.95 19.37c1.27-1.72 3.34-2.71 5.7-2.71 2.4 0 4.46.99 5.73 2.71 1.29 1.75 1.6 3.92 1.6 6.31 0 2.36-.31 4.53-1.6 6.28-1.27 1.71-3.33 2.69-5.73 2.69-2.36 0-4.43-.99-5.7-2.69-1.29-1.75-1.6-3.92-1.6-6.28 0-2.39.31-4.56 1.6-6.31zm6.88 11.38c1.24 0 2.1-1.05 2.43-2.15.3-.96.33-2.12.33-2.92 0-.81-.04-1.97-.33-2.93-.34-1.09-1.19-2.15-2.43-2.15-1.23 0-2.07 1.05-2.42 2.15-.29.97-.33 2.13-.33 2.93 0 .8.04 1.96.33 2.92.35 1.1 1.19 2.15 2.42 2.15z" fill="#FF4A00"/>
  <path d="M57.8 16.66h5.01L56.83 34h-6.25l-6-17.34h5.03l3.62 11.67 4.57-11.67z" fill="#FF4A00"/>
  <path d="M64.25 21.73h4.56v1.94h.06c.87-1.6 2.6-2.35 4.1-2.35 4.03 0 5.29 2.31 5.29 5.72V34h-4.74v-6.07c0-1.72-.52-2.86-2.08-2.86-1.5 0-2.45 1.14-2.45 3.46V34h-4.74V21.73z" fill="#FF4A00"/>
  <path d="M89.55 34h-4.74V16.66h4.74V34z" fill="#FF4A00"/>
  <path d="M101.53 31.4c0 4.98-2.13 7.78-7.93 7.78-1.97 0-3.98-.38-5.64-1.03l.74-3.68c1.4.68 2.95 1.1 4.53 1.1 3.22 0 3.53-2.23 3.53-4.47v-.82h-.06c-.86 1.22-2.14 1.78-3.53 1.78-4.91 0-6.05-3.98-6.05-8.04 0-3.49 1.69-7.69 6.07-7.69 1.56 0 2.95.62 3.71 1.94h.06v-1.6h4.57V31.4zm-5.23-9.22c0-1.96-.4-3.95-2.55-3.95-2.09 0-2.49 2.24-2.49 3.8 0 1.57.4 3.98 2.47 3.98 2.14 0 2.57-2.16 2.57-3.83z" fill="#FF4A00"/>
  <path d="M104.87 21.73h4.56v1.94h.06c.91-1.41 2.5-2.35 4.4-2.35 1.73 0 3.62.65 4.4 2.35.92-1.16 2.54-2.35 4.46-2.35 3.9 0 5.03 2.21 5.03 5.72V34h-4.75v-6.3c0-1.47-.12-2.63-1.82-2.63-1.93 0-2.04 2.06-2.04 3.46V34h-4.72v-6.3c0-1.47-.15-2.63-1.82-2.63-1.93 0-2.04 2.06-2.04 3.46V34h-4.74V21.73h-.98z" fill="#FF4A00"/>
</svg>
